<?xml version="1.0" standalone="no"?><svg class="border-image" xmlns="http://www.w3.org/2000/svg" viewBox="0 0 1440 320"><path fill="black" fill-opacity="1" d="M0,128L6.2,128C12.3,128,25,128,37,138.7C49.2,149,62,171,74,181.3C86.2,192,98,192,111,165.3C123.1,139,135,85,148,69.3C160,53,172,75,185,96C196.9,117,209,139,222,133.3C233.8,128,246,96,258,96C270.8,96,283,128,295,149.3C307.7,171,320,181,332,202.7C344.6,224,357,256,369,256C381.5,256,394,224,406,186.7C418.5,149,431,107,443,80C455.4,53,468,43,480,42.7C492.3,43,505,53,517,74.7C529.2,96,542,128,554,122.7C566.2,117,578,75,591,80C603.1,85,615,139,628,170.7C640,203,652,213,665,208C676.9,203,689,181,702,197.3C713.8,213,726,267,738,261.3C750.8,256,763,192,775,165.3C787.7,139,800,149,812,144C824.6,139,837,117,849,144C861.5,171,874,245,886,245.3C898.5,245,911,171,923,122.7C935.4,75,948,53,960,69.3C972.3,85,985,139,997,154.7C1009.2,171,1022,149,1034,128C1046.2,107,1058,85,1071,112C1083.1,139,1095,213,1108,229.3C1120,245,1132,203,1145,176C1156.9,149,1169,139,1182,133.3C1193.8,128,1206,128,1218,112C1230.8,96,1243,64,1255,48C1267.7,32,1280,32,1292,58.7C1304.6,85,1317,139,1329,186.7C1341.5,235,1354,277,1366,261.3C1378.5,245,1391,171,1403,160C1415.4,149,1428,203,1434,229.3L1440,256L1440,320L1433.8,320C1427.7,320,1415,320,1403,320C1390.8,320,1378,320,1366,320C1353.8,320,1342,320,1329,320C1316.9,320,1305,320,1292,320C1280,320,1268,320,1255,320C1243.1,320,1231,320,1218,320C1206.2,320,1194,320,1182,320C1169.2,320,1157,320,1145,320C1132.3,320,1120,320,1108,320C1095.4,320,1083,320,1071,320C1058.5,320,1046,320,1034,320C1021.5,320,1009,320,997,320C984.6,320,972,320,960,320C947.7,320,935,320,923,320C910.8,320,898,320,886,320C873.8,320,862,320,849,320C836.9,320,825,320,812,320C800,320,788,320,775,320C763.1,320,751,320,738,320C726.2,320,714,320,702,320C689.2,320,677,320,665,320C652.3,320,640,320,628,320C615.4,320,603,320,591,320C578.5,320,566,320,554,320C541.5,320,529,320,517,320C504.6,320,492,320,480,320C467.7,320,455,320,443,320C430.8,320,418,320,406,320C393.8,320,382,320,369,320C356.9,320,345,320,332,320C320,320,308,320,295,320C283.1,320,271,320,258,320C246.2,320,234,320,222,320C209.2,320,197,320,185,320C172.3,320,160,320,148,320C135.4,320,123,320,111,320C98.5,320,86,320,74,320C61.5,320,49,320,37,320C24.6,320,12,320,6,320L0,320Z"></path></svg>